# xmcd CD database file
#
# Track frame offsets:
#	150
#	17563
#	41010
#	76003
#	96453
#	110900
#	130315
#	151430
#	168283
#
# Disc length: 2440 seconds
#
# Revision: 4
# Processed by: cddbd v1.5.2PL0 Copyright (c) Steve Scherf et al.
# Submitted via: CDex 1.51
#
DISCID=6d098609
DTITLE=Peter Green - In The Skies
DYEAR=1978
DGENRE=Blues
TTITLE0=In The Skies
TTITLE1=Slabo Day
TTITLE2=A Fool No More
TTITLE3=Tribal Dance
TTITLE4=Seven Stars
TTITLE5=Funky Chunk
TTITLE6=Just For You
TTITLE7=Proud Pinto
TTITLE8=Apostle
EXTD=YEAR: 1978
EXTT0=
EXTT1=
EXTT2=
EXTT3=
EXTT4=
EXTT5=
EXTT6=
EXTT7=
EXTT8=
PLAYORDER=
